<svg width="25" height="24" viewBox="0 0 25 24" fill="none" xmlns="http://www.w3.org/2000/svg">
<g clip-path="url(#clip0_520_4509)">
<path d="M23.5 9H1.5M19.4 14H9.5M19.5 18H9.4M6.5 4V1M18.5 4V1M23.5 23H1.5V4H23.5V23Z" stroke-width="2" stroke-linecap="round" stroke-linejoin="round"/>
<path d="M5.5 15C6.05228 15 6.5 14.5523 6.5 14C6.5 13.4477 6.05228 13 5.5 13C4.94772 13 4.5 13.4477 4.5 14C4.5 14.5523 4.94772 15 5.5 15Z" fill="#9C9C9C"/>
<path d="M5.5 19C6.05228 19 6.5 18.5523 6.5 18C6.5 17.4477 6.05228 17 5.5 17C4.94772 17 4.5 17.4477 4.5 18C4.5 18.5523 4.94772 19 5.5 19Z" fill="#9C9C9C"/>
</g>
<defs>
<clipPath id="clip0_520_4509">
<rect width="24" height="24" fill="white" transform="translate(0.5)"/>
</clipPath>
</defs>
</svg>
