<svg width="16" height="15" viewBox="0 0 16 15" fill="none" xmlns="http://www.w3.org/2000/svg">
<path d="M4.32787 10.924C6.75847 13.2039 9.79235 15 12.2929 15C13.4383 15 14.4175 14.6309 15.2219 13.819C15.6678 13.3762 16 12.8021 16 12.2526C16 11.8589 15.8426 11.4817 15.4142 11.2028L12.7475 9.43958C12.3803 9.20175 12.0568 9.07053 11.7508 9.07053C11.3574 9.07053 10.9902 9.26736 10.588 9.63641L9.94973 10.2187C9.85355 10.3089 9.73989 10.3417 9.61749 10.3417C9.49508 10.3417 9.38142 10.3007 9.28525 10.2597C8.7694 10.0055 7.82514 9.30837 6.94208 8.47184C6.05027 7.63532 5.28962 6.76599 5.03607 6.26572C4.99235 6.17551 4.94863 6.06889 4.94863 5.97048C4.94863 5.86386 4.98361 5.76545 5.07978 5.67523L5.70055 5.06014C6.08525 4.66648 6.29508 4.32203 6.29508 3.96118C6.29508 3.66594 6.16393 3.36249 5.90164 3.01804L4.06557 0.582285C3.75956 0.180426 3.33115 0 2.85902 0C2.3082 0 1.71366 0.254237 1.20656 0.721706C0.367213 1.48442 0 2.42756 0 3.46911C0 5.81465 1.88852 8.63587 4.32787 10.924Z" fill="white"/>
</svg>
