<svg width="20" height="20" viewBox="0 0 20 20" fill="none" xmlns="http://www.w3.org/2000/svg">
<g clip-path="url(#clip0_392_3083)">
<path d="M3.33333 7.5H10.8333C11.7538 7.5 12.5 8.24619 12.5 9.16667V16.6667C12.5 17.5871 11.7538 18.3333 10.8333 18.3333H3.33333C2.41286 18.3333 1.66667 17.5871 1.66667 16.6667V9.16667C1.66667 8.24619 2.41286 7.5 3.33333 7.5Z" stroke="#7F7F7F" stroke-width="2" stroke-linecap="round" stroke-linejoin="round"/>
<path d="M15.8333 12.5H16.6667C17.1087 12.5 17.5326 12.3244 17.8452 12.0118C18.1577 11.6992 18.3333 11.2753 18.3333 10.8333V3.33329C18.3333 2.89127 18.1577 2.46734 17.8452 2.15478C17.5326 1.84222 17.1087 1.66663 16.6667 1.66663H9.16668C8.72465 1.66663 8.30073 1.84222 7.98817 2.15478C7.67561 2.46734 7.50001 2.89127 7.50001 3.33329V4.16663" stroke="#7F7F7F" stroke-width="2" stroke-linecap="round" stroke-linejoin="round"/>
</g>
<defs>
<clipPath id="clip0_392_3083">
<rect width="20" height="20" fill="white" transform="matrix(-1 0 0 1 20 0)"/>
</clipPath>
</defs>
</svg>
