<svg width="14" height="4" viewBox="0 0 14 4" fill="none" xmlns="http://www.w3.org/2000/svg">
<path d="M13.4166 0.833333C13.4166 0.988043 13.3551 1.13642 13.2457 1.24581C13.1363 1.35521 12.988 1.41667 12.8333 1.41667H1.16659C1.01188 1.41667 0.863503 1.35521 0.754106 1.24581C0.64471 1.13642 0.583252 0.988043 0.583252 0.833333C0.583252 0.678624 0.64471 0.530251 0.754106 0.420854C0.863503 0.311458 1.01188 0.25 1.16659 0.25H12.8333C12.988 0.25 13.1363 0.311458 13.2457 0.420854C13.3551 0.530251 13.4166 0.678624 13.4166 0.833333Z" fill="#7F7F7F"/>
<path d="M13.4166 3.16667C13.4166 3.32138 13.3551 3.46975 13.2457 3.57915C13.1363 3.68854 12.988 3.75 12.8333 3.75H1.16659C1.01188 3.75 0.863503 3.68854 0.754106 3.57915C0.64471 3.46975 0.583252 3.32138 0.583252 3.16667C0.583252 3.01196 0.64471 2.86358 0.754106 2.75419C0.863503 2.64479 1.01188 2.58333 1.16659 2.58333H12.8333C12.988 2.58333 13.1363 2.64479 13.2457 2.75419C13.3551 2.86358 13.4166 3.01196 13.4166 3.16667Z" fill="#7F7F7F"/>
</svg>
