<svg width="21" height="20" viewBox="0 0 21 20" fill="none" xmlns="http://www.w3.org/2000/svg">
<g clip-path="url(#clip0_1462_4862)">
<path d="M19.6463 0.674039L19.6222 0.652083C19.1619 0.231597 18.5652 0 17.942 0C17.2433 0 16.5726 0.295745 16.1016 0.811335L7.19593 10.5612C7.11475 10.6501 7.05319 10.7549 7.01512 10.8691L5.96795 14.0083C5.84688 14.3713 5.90764 14.7727 6.13047 15.082C6.35507 15.3937 6.71691 15.5799 7.09847 15.5799C7.26351 15.5799 7.42489 15.5459 7.57789 15.479L10.6099 14.1526C10.7201 14.1044 10.819 14.0336 10.9001 13.9447L19.8058 4.19489C20.7325 3.18039 20.6611 1.60106 19.6463 0.674039ZM7.9743 13.4284L8.58878 11.5863L8.6406 11.5296L9.80523 12.5933L9.75341 12.6501L7.9743 13.4284ZM18.536 3.03501L10.9651 11.3236L9.80048 10.2599L17.3714 1.97121C17.5195 1.80909 17.7221 1.71978 17.942 1.71978C18.1349 1.71978 18.3197 1.79155 18.4627 1.92214L18.4867 1.9441C18.8011 2.23124 18.8232 2.72063 18.536 3.03501Z" fill="#7F7F7F"/>
<path d="M17.9186 7.93322C17.4437 7.93322 17.0587 8.31822 17.0587 8.79311V16.0934C17.0587 17.2992 16.0776 18.2802 14.8719 18.2802H4.45005C3.2442 18.2802 2.26324 17.2992 2.26324 16.0934V5.75626C2.26324 4.55047 3.24426 3.56945 4.45005 3.56945H11.9934C12.4683 3.56945 12.8533 3.18445 12.8533 2.70956C12.8533 2.23467 12.4683 1.84967 11.9934 1.84967H4.45005C2.29591 1.84967 0.543457 3.60218 0.543457 5.75626V16.0933C0.543457 18.2474 2.29597 19.9999 4.45005 19.9999H14.8718C17.0259 19.9999 18.7784 18.2474 18.7784 16.0933V8.79311C18.7784 8.31822 18.3934 7.93322 17.9186 7.93322Z" fill="#7F7F7F"/>
</g>
<defs>
<clipPath id="clip0_1462_4862">
<rect width="20" height="20" fill="white" transform="translate(0.5)"/>
</clipPath>
</defs>
</svg>
