<svg version="1.2" xmlns="http://www.w3.org/2000/svg" viewBox="0 0 54 54" width="54" height="54">
	<title>live</title>
	<defs>
		<linearGradient id="g1" x2="1" gradientUnits="userSpaceOnUse" gradientTransform="matrix(0,54,-54,0,27,0)">
			<stop offset="0" stop-color="#ffe5d6"/>
			<stop offset="1" stop-color="#ff8339"/>
		</linearGradient>
	</defs>
	<style>
		.s0 { fill: none;stroke: url(#g1);stroke-width: 2 } 
		.s1 { fill: #ff8339 } 
	</style>
	<path fill-rule="evenodd" class="s0" d="m27 1c14.4 0 26 11.6 26 26 0 14.4-11.6 26-26 26-14.4 0-26-11.6-26-26 0-14.4 11.6-26 26-26z"/>
	<g style="opacity: .5">
		<path fill-rule="evenodd" class="s1" d="m18.3 9.9c0.4 0.3 0.4 1 0 1.4-2.3 2.2-3.6 5.3-3.6 8.7 0 3.5 1.4 6.6 3.7 8.8 0.4 0.4 0.4 1 0 1.4-0.4 0.4-1 0.4-1.4 0-2.7-2.6-4.3-6.2-4.3-10.2 0-4 1.6-7.6 4.2-10.1 0.4-0.4 1-0.4 1.4 0zm17.5 0.1c0.4-0.4 1-0.4 1.4 0 2.6 2.6 4.1 6.1 4.1 10 0 4-1.6 7.5-4.2 10.1-0.3 0.4-1 0.4-1.4 0-0.4-0.4-0.4-1 0-1.4 2.3-2.2 3.6-5.3 3.6-8.7 0-3.4-1.3-6.4-3.5-8.6-0.4-0.4-0.4-1.1 0-1.4zm-13.7 4c0.4 0.4 0.3 1-0.1 1.4-1.2 1.2-2 2.8-2 4.6 0 1.8 0.8 3.4 2.1 4.6 0.4 0.4 0.4 1 0 1.4-0.3 0.4-1 0.4-1.4 0.1-1.6-1.6-2.7-3.7-2.7-6.1 0-2.4 1-4.5 2.7-6.1 0.4-0.3 1-0.3 1.4 0.1zm9.9 0c0.4-0.4 1-0.4 1.4 0 1.6 1.5 2.6 3.6 2.6 6 0 2.3-1 4.5-2.7 6-0.4 0.4-1 0.4-1.4 0-0.3-0.4-0.3-1.1 0.1-1.5 1.2-1.1 2-2.8 2-4.5 0-1.8-0.7-3.4-2-4.6-0.4-0.3-0.4-1 0-1.4z"/>
	</g>
	<path class="s1" d="m29.2 17.9c1.2 0.9 1.8 1.4 1.8 2.1 0 0.7-0.6 1.2-1.8 2.1q-0.5 0.3-0.9 0.6-0.5 0.3-0.9 0.5c-1.2 0.7-1.8 1-2.3 0.7-0.6-0.4-0.6-1.2-0.7-2.7q-0.1-0.6-0.1-1.2 0-0.6 0.1-1.2c0.1-1.5 0.1-2.3 0.7-2.7 0.5-0.3 1.1 0 2.3 0.7q0.4 0.2 0.9 0.5 0.4 0.3 0.9 0.6z"/>
	<path class="s1" d="m15.1 44v-8.9h1.8v7.4h3.6v1.5z"/>
	<path class="s1" d="m22 44v-8.9h1.8v8.9z"/>
	<path class="s1" d="m27.6 44l-2.8-8.9h1.9l1.2 4.3q0.2 0.8 0.3 1.5 0.2 0.7 0.4 1.4h0.1q0.2-0.7 0.4-1.4 0.1-0.7 0.3-1.5l1.2-4.3h1.8l-2.7 8.9z"/>
	<path class="s1" d="m33.4 44v-8.9h5.5v1.5h-3.7v2h3.1v1.5h-3.1v2.4h3.8v1.5z"/>
</svg>